<?xml version="1.0" encoding="UTF-8"?>
<svg id="Layer_2" data-name="Layer 2" xmlns="http://www.w3.org/2000/svg" viewBox="0 0 1417.32 1417.32">
  <defs>
    <style>
      .cls-1 {
        fill: #56519e;
      }

      .cls-1, .cls-2, .cls-3, .cls-4 {
        stroke-width: 0px;
      }

      .cls-2 {
        fill: #317783;
      }

      .cls-3 {
        fill: #935c96;
      }

      .cls-4 {
        fill: #f1f2f2;
      }
    </style>
  </defs>
  <path class="cls-4" d="M1416.52,1055.87v331.22c0,8.49-2.39,16.16-6.26,21.65,4.41-3.59,7.06-8.23,7.06-13.29v-334.85c0-1.63-.27-3.21-.8-4.73ZM3.26,15.93c.47-1.27-1.42-2.05-1.97-.82C.45,17.02,0,19.03,0,21.12v1374.33c0,5.05,2.64,9.68,7.04,13.28-3.85-5.49-6.24-13.16-6.24-21.64V30.23c0-5.17.89-10.04,2.46-14.3Z"/>
  <path class="cls-2" d="M969.91,222.28l-445.87,596.02c-2.79,3.73-12.83,2.63-12.83-1.41V29.45c0-8.34,16.05-13.69,29.37-9.79,174.89,51.17,314.6,117.68,426.22,191.29,4.78,3.15,5.95,7.52,3.11,11.33Z"/>
  <path class="cls-3" d="M565.41,857.2l485.09-559.39c6.79-7.83,26.49-8.47,34.93-1.14,93.16,80.8,159.27,165.6,206.16,245.29,2.6,4.41-.11,9.25-6.7,12.11l-709.35,307.64c-5.55,2.41-13.18-.98-10.12-4.5Z"/>
  <path class="cls-1" d="M1377.96,907.8h-751c-6.56,0-9.18-4.7-3.75-6.74l681.55-256.61c11.6-4.37,27.49-.93,30.73,6.62,50.95,118.86,60.62,213.61,62.46,245.32.36,6.25-8.7,11.41-19.99,11.41Z"/>
  <g>
    <path class="cls-4" d="M1387.09,1416.15H30.23c-5.7,0-11.03-1.08-15.59-2.96-1.25-.52-2.11,1.22-.95,1.91,2.41,1.43,5.05,2.22,7.81,2.22h1374.33c2.75,0,5.38-.78,7.78-2.21,1.16-.69.3-2.43-.95-1.91-4.55,1.88-9.87,2.95-15.57,2.95ZM359.77.42c-1.11-.28-2.25-.42-3.42-.42H21.5C16.54,0,12,2.54,8.44,6.78,13.94,2.86,21.67.42,30.23.42h329.54Z"/>
    <path class="cls-4" d="M1416.52,1027v360.09c0,8.42-2.35,16.03-6.16,21.51-.06.09-.14.17-.23.24-5.54,4.47-13.8,7.3-23.04,7.3H30.23c-9.24,0-17.51-2.84-23.06-7.31-.09-.07-.16-.15-.23-.24-3.79-5.48-6.14-13.09-6.14-21.5V30.23C.8,20.84,3.74,12.44,8.34,6.9c.07-.08.14-.15.23-.21C14.06,2.82,21.74.42,30.23.42h360.09c16.7,0,30.23,9.27,30.23,20.7v952.97c0,12.52,10.15,22.68,22.68,22.68h952.6c11.43,0,20.69,13.53,20.69,30.23Z"/>
  </g>
</svg>